<svg width="25" height="24" viewBox="0 0 25 24" fill="none" xmlns="http://www.w3.org/2000/svg">
<g clip-path="url(#clip0_1_97)">
<path d="M18.4233 8.23227C15.6352 6.67287 11.1604 4.16885 4.21947 0.282486C3.75152 -0.0265614 3.21311 -0.0670615 2.74792 0.090392L14.6565 11.999L18.4233 8.23227Z" fill="#32BBFF"/>
<path d="M2.74788 0.090332C2.66069 0.119863 2.57585 0.155488 2.4947 0.19852C1.981 0.476395 1.60352 1.0111 1.60352 1.68737V22.3105C1.60352 22.9868 1.98095 23.5215 2.4947 23.7993C2.57571 23.8423 2.6605 23.8781 2.7476 23.9078L14.6565 11.9989L2.74788 0.090332Z" fill="#32BBFF"/>
<path d="M14.6569 11.999L2.74805 23.9079C3.21338 24.0665 3.75178 24.0291 4.21988 23.7155C10.951 19.9463 15.3755 17.472 18.1958 15.8993C18.2743 15.8552 18.3512 15.8121 18.4272 15.7694L14.6569 11.999Z" fill="#32BBFF"/>
<path d="M1.60352 11.999V22.3106C1.60352 22.9869 1.98095 23.5216 2.4947 23.7994C2.57571 23.8424 2.6605 23.8782 2.7476 23.9079L14.6565 11.999H1.60352Z" fill="#2C9FD9"/>
<path d="M4.21972 0.282559C3.66401 -0.0843794 3.0087 -0.0739263 2.495 0.198699L14.476 12.1798L18.4235 8.23234C15.6355 6.67295 11.1606 4.16893 4.21972 0.282559Z" fill="#29CC5E"/>
<path d="M14.4761 11.8185L2.495 23.7995C3.00875 24.0721 3.66401 24.0878 4.21972 23.7157C10.9509 19.9464 15.3753 17.4721 18.1956 15.8994C18.2741 15.8553 18.3511 15.8122 18.4271 15.7695L14.4761 11.8185Z" fill="#D93F21"/>
<path d="M23.3966 11.9989C23.3966 11.4275 23.1082 10.8509 22.5368 10.5311C22.5368 10.5311 21.4681 9.93479 18.1923 8.10254L14.2959 11.9989L18.1961 15.8992C21.4359 14.0801 22.5367 13.4667 22.5367 13.4667C23.1082 13.147 23.3966 12.5703 23.3966 11.9989Z" fill="#FFD500"/>
<path d="M22.5368 13.4669C23.1082 13.1471 23.3966 12.5704 23.3966 11.999H14.2959L18.1961 15.8993C21.436 14.0802 22.5368 13.4669 22.5368 13.4669Z" fill="#FFAA00"/>
</g>
<defs>
<clipPath id="clip0_1_97">
<rect width="24" height="24" fill="white" transform="translate(0.5)"/>
</clipPath>
</defs>
</svg>
