<svg width="43" height="38" viewBox="0 0 43 38" fill="none" xmlns="http://www.w3.org/2000/svg">
<path d="M3.05078 14.6406C2.98047 14.3594 2.92188 14.0547 2.875 13.7266L2.73438 12.7422C2.64062 12.0391 2.59375 11.2188 2.59375 10.2812C2.59375 9.32031 2.80469 8.21875 3.22656 6.97656C3.67188 5.73438 4.38672 4.65625 5.37109 3.74219C7.48047 1.77344 10.7383 0.789062 15.1445 0.789062L41.2656 23.7461C41.5 24.5898 41.6172 25.7148 41.6172 27.1211C41.6172 28.5039 41.3828 29.8281 40.9141 31.0938C40.4453 32.3359 39.6953 33.4141 38.6641 34.3281C36.4609 36.3438 33.25 37.3516 29.0312 37.3516L3.29688 14.6406H3.05078ZM41.8633 1.14062C42.5664 2.21875 42.918 3.69531 42.918 5.57031C42.918 9.03906 41.6172 11.6289 39.0156 13.3398L24.918 1.14062H41.8633ZM2.03125 37C1.32812 35.9219 0.976562 34.4453 0.976562 32.5703C0.976562 29.125 2.26562 26.5469 4.84375 24.8359L18.9766 37H2.03125Z" fill="#0247FE"/>
</svg>
