<svg width="48" height="48" viewBox="0 0 48 48" fill="none" xmlns="http://www.w3.org/2000/svg">
<rect width="48" height="48" rx="4" fill="#DDE6FC"/>
<path d="M24 24C27.6819 24 30.6666 21.0153 30.6666 17.3334C30.6666 13.6515 27.6819 10.6667 24 10.6667C20.3181 10.6667 17.3333 13.6515 17.3333 17.3334C17.3333 21.0153 20.3181 24 24 24Z" stroke="#0247FE" stroke-width="1.5" stroke-linecap="round" stroke-linejoin="round"/>
<path d="M12.5469 37.3333C12.5469 32.1733 17.6802 28 24.0002 28C25.2802 28 26.5202 28.1733 27.6802 28.4933" stroke="#0247FE" stroke-width="1.5" stroke-linecap="round" stroke-linejoin="round"/>
<path d="M37.3334 32C37.3334 32.4267 37.28 32.84 37.1734 33.24C37.0534 33.7733 36.84 34.2934 36.56 34.7467C35.64 36.2934 33.9467 37.3334 32 37.3334C30.6267 37.3334 29.3867 36.8133 28.4533 35.96C28.0533 35.6133 27.7067 35.2 27.44 34.7467C26.9467 33.9467 26.6667 33 26.6667 32C26.6667 30.56 27.24 29.24 28.1734 28.28C29.1467 27.28 30.5067 26.6667 32 26.6667C33.5734 26.6667 35 27.3467 35.96 28.44C36.8134 29.3867 37.3334 30.64 37.3334 32Z" stroke="#0247FE" stroke-width="1.5" stroke-miterlimit="10" stroke-linecap="round" stroke-linejoin="round"/>
<path d="M33.9867 31.9731H30.0134" stroke="#0247FE" stroke-width="1.5" stroke-miterlimit="10" stroke-linecap="round" stroke-linejoin="round"/>
<path d="M32.0004 30.0266V34.0132" stroke="#0247FE" stroke-width="1.5" stroke-miterlimit="10" stroke-linecap="round" stroke-linejoin="round"/>
</svg>
