<svg width="48" height="48" viewBox="0 0 48 48" fill="none" xmlns="http://www.w3.org/2000/svg">
<rect width="48" height="48" rx="4" fill="#DDE6FC"/>
<path d="M31.9998 17.5468C31.9198 17.5335 31.8264 17.5335 31.7464 17.5468C29.9064 17.4801 28.4398 15.9735 28.4398 14.1068C28.4398 12.2001 29.9731 10.6668 31.8798 10.6668C33.7864 10.6668 35.3198 12.2135 35.3198 14.1068C35.3064 15.9735 33.8398 17.4801 31.9998 17.5468Z" stroke="#0247FE" stroke-width="1.5" stroke-linecap="round" stroke-linejoin="round"/>
<path d="M30.6269 27.2537C32.4536 27.5604 34.4669 27.2404 35.8803 26.2937C37.7603 25.0404 37.7603 22.987 35.8803 21.7337C34.4536 20.787 32.4136 20.467 30.5869 20.787" stroke="#0247FE" stroke-width="1.5" stroke-linecap="round" stroke-linejoin="round"/>
<path d="M15.9603 17.5468C16.0403 17.5335 16.1336 17.5335 16.2136 17.5468C18.0536 17.4801 19.5203 15.9735 19.5203 14.1068C19.5203 12.2001 17.9869 10.6668 16.0803 10.6668C14.1736 10.6668 12.6403 12.2135 12.6403 14.1068C12.6536 15.9735 14.1203 17.4801 15.9603 17.5468Z" stroke="#0247FE" stroke-width="1.5" stroke-linecap="round" stroke-linejoin="round"/>
<path d="M17.3336 27.2537C15.5069 27.5604 13.4936 27.2404 12.0802 26.2937C10.2002 25.0404 10.2002 22.987 12.0802 21.7337C13.5069 20.787 15.5469 20.467 17.3736 20.787" stroke="#0247FE" stroke-width="1.5" stroke-linecap="round" stroke-linejoin="round"/>
<path d="M23.9998 27.507C23.9198 27.4936 23.8264 27.4936 23.7464 27.507C21.9064 27.4403 20.4398 25.9336 20.4398 24.067C20.4398 22.1603 21.9731 20.627 23.8798 20.627C25.7864 20.627 27.3198 22.1736 27.3198 24.067C27.3064 25.9336 25.8398 27.4536 23.9998 27.507Z" stroke="#0247FE" stroke-width="1.5" stroke-linecap="round" stroke-linejoin="round"/>
<path d="M20.1193 31.7071C18.2393 32.9605 18.2393 35.0138 20.1193 36.2671C22.2526 37.6938 25.746 37.6938 27.8793 36.2671C29.7593 35.0138 29.7593 32.9605 27.8793 31.7071C25.7593 30.2938 22.2526 30.2938 20.1193 31.7071Z" stroke="#0247FE" stroke-width="1.5" stroke-linecap="round" stroke-linejoin="round"/>
</svg>
